<svg preserveAspectRatio="none" width="100%" height="100%" overflow="visible" style="display: block;" viewBox="0 0 30.7031 30.7031" fill="none" xmlns="http://www.w3.org/2000/svg">
<g id="Background">
<rect width="30.7031" height="30.7031" rx="9.21094" fill="var(--fill-0, #F7DEE7)"/>
<path id="Vector" d="M15.3581 13.1915V16.0782M14.7099 18.9645H15.919M21.6775 19.6865L16.4817 9.58325C16.3684 9.36113 16.2041 9.17637 16.0056 9.04783C15.807 8.91929 15.5814 8.85156 15.3516 8.85156C15.1218 8.85156 14.8961 8.91929 14.6976 9.04783C14.4991 9.17637 14.3348 9.36113 14.2215 9.58325L9.02562 19.6865C8.91111 19.9069 8.85106 20.157 8.85157 20.4114C8.85207 20.6659 8.91312 20.9157 9.02851 21.1355C9.1439 21.3553 9.30954 21.5373 9.50864 21.663C9.70774 21.7888 9.93321 21.8538 10.1622 21.8515H20.5539C20.7818 21.8512 21.0057 21.7844 21.2029 21.6576C21.4002 21.5308 21.564 21.3486 21.6779 21.1292C21.7917 20.9098 21.8516 20.661 21.8516 20.4078C21.8515 20.1546 21.7915 19.9058 21.6775 19.6865Z" stroke="var(--stroke-0, #212022)" stroke-opacity="0.8" stroke-width="1.05" stroke-linejoin="round"/>
</g>
</svg>
