<svg preserveAspectRatio="none" width="100%" height="100%" overflow="visible" style="display: block;" viewBox="0 0 15.3516 15.3516" fill="none" xmlns="http://www.w3.org/2000/svg">
<g id="SVG">
<path id="Vector" d="M1.91895 7.03613L13.4326 3.83789V11.5137L1.91895 8.95508V7.03613Z" stroke="var(--stroke-0, #212022)" stroke-opacity="0.8" stroke-width="1.2793" stroke-linecap="round" stroke-linejoin="round"/>
<path id="Vector_2" d="M7.42 10.7461C7.3528 10.9897 7.23828 11.2177 7.08297 11.417C6.92766 11.6164 6.73461 11.7831 6.51485 11.9079C6.29508 12.0326 6.05289 12.1128 5.80212 12.144C5.55135 12.1751 5.2969 12.1566 5.0533 12.0894C4.8097 12.0222 4.58172 11.9076 4.38238 11.7523C4.18304 11.597 4.01624 11.404 3.89151 11.1842C3.76677 10.9644 3.68655 10.7222 3.65541 10.4715C3.62428 10.2207 3.64284 9.96625 3.71004 9.72265" stroke="var(--stroke-0, #212022)" stroke-opacity="0.8" stroke-width="1.2793" stroke-linecap="round" stroke-linejoin="round"/>
</g>
</svg>
