<svg preserveAspectRatio="none" width="100%" height="100%" overflow="visible" style="display: block;" viewBox="0 0 15.35 15.35" fill="none" xmlns="http://www.w3.org/2000/svg">
<g id="mdi:bell-outline">
<path id="Vector" d="M6.39583 13.4313H8.95417C8.95417 14.1348 8.37854 14.7104 7.675 14.7104C6.97146 14.7104 6.39583 14.1348 6.39583 13.4313ZM13.4313 12.1521V12.7917H1.91875V12.1521L3.19792 10.8729V7.03542C3.19792 5.05271 4.47708 3.32583 6.39583 2.75021V2.55833C6.39583 1.85479 6.97146 1.27917 7.675 1.27917C8.37854 1.27917 8.95417 1.85479 8.95417 2.55833V2.75021C10.8729 3.32583 12.1521 5.05271 12.1521 7.03542V10.8729L13.4313 12.1521ZM10.8729 7.03542C10.8729 5.24458 9.46583 3.8375 7.675 3.8375C5.88417 3.8375 4.47708 5.24458 4.47708 7.03542V11.5125H10.8729V7.03542Z" fill="var(--fill-0, #212022)" fill-opacity="0.8"/>
</g>
</svg>
