<svg preserveAspectRatio="none" width="100%" height="100%" overflow="visible" style="display: block;" viewBox="0 0 12.2812 12.2812" fill="none" xmlns="http://www.w3.org/2000/svg">
<g id="SVG">
<path id="Vector" d="M11.2578 8.65829V10.1934C11.2584 10.336 11.2292 10.477 11.1721 10.6076C11.115 10.7382 11.0313 10.8554 10.9263 10.9517C10.8213 11.0481 10.6973 11.1214 10.5623 11.1671C10.4273 11.2128 10.2842 11.2297 10.1423 11.2169C8.56765 11.0458 7.05509 10.5077 5.72616 9.64591C4.48976 8.86025 3.44151 7.812 2.65585 6.5756C1.79103 5.24063 1.25284 3.72071 1.08487 2.13899C1.07208 1.99749 1.0889 1.85487 1.13425 1.72022C1.1796 1.58557 1.2525 1.46183 1.34829 1.35689C1.44408 1.25196 1.56067 1.16812 1.69064 1.11071C1.82061 1.0533 1.96111 1.02358 2.10319 1.02345H3.63835C3.88669 1.021 4.12745 1.10895 4.31574 1.27088C4.50404 1.43282 4.62703 1.6577 4.66179 1.9036C4.72658 2.39489 4.84675 2.87727 5.01999 3.34153C5.08884 3.52469 5.10374 3.72374 5.06293 3.91511C5.02211 4.10647 4.9273 4.28213 4.78972 4.42126L4.13983 5.07114C4.86829 6.35225 5.92903 7.413 7.21015 8.14146L7.86003 7.49157C7.99916 7.35399 8.17481 7.25918 8.36618 7.21836C8.55754 7.17755 8.7566 7.19245 8.93975 7.2613C9.40402 7.43454 9.8864 7.55471 10.3777 7.6195C10.6263 7.65457 10.8533 7.77978 11.0156 7.97131C11.1778 8.16284 11.2641 8.40733 11.2578 8.65829Z" stroke="var(--stroke-0, #8B8893)" stroke-width="1.02344" stroke-linecap="round" stroke-linejoin="round"/>
</g>
</svg>
