<svg preserveAspectRatio="none" width="100%" height="100%" overflow="visible" style="display: block;" viewBox="0 0 17 17" fill="none" xmlns="http://www.w3.org/2000/svg">
<g id="Frame 10">
<path id="Vector" d="M15.2292 7.79167V14.875M15.2292 7.79167H1.77083M15.2292 7.79167H13.8125C13.8125 8.16739 13.9618 8.52772 14.2274 8.7934C14.4931 9.05908 14.8534 9.20833 15.2292 9.20833V7.79167ZM15.2292 14.875H1.77083M15.2292 14.875H13.8125C13.8125 14.4993 13.9618 14.1389 14.2274 13.8733C14.4931 13.6076 14.8534 13.4583 15.2292 13.4583V14.875ZM1.77083 14.875V7.79167M1.77083 14.875H3.18892C3.1891 14.6887 3.15255 14.5042 3.08135 14.3321C3.01015 14.16 2.9057 14.0036 2.77399 13.8718C2.64227 13.7401 2.48586 13.6357 2.31373 13.5645C2.1416 13.4933 1.95711 13.4567 1.77083 13.4569V14.875ZM1.77083 7.79167H3.1875C3.1875 8.16739 3.03824 8.52772 2.77257 8.7934C2.50689 9.05908 2.14656 9.20833 1.77083 9.20833V7.79167ZM13.4583 4.01625L12.138 4.45613L10.0201 1.4875M13.4583 4.01625L14.7503 7.79379M13.4583 4.01625L2.37575 7.79379L2.125 7.79167M14.7503 7.79379H2.12642L2.125 7.7945M14.7503 7.79379H14.875M2.125 7.7945L10.0201 1.4875M2.125 7.7945H1.77083M10.0201 1.4875L12.0155 4.28542M8.5 9.5625C8.96965 9.5625 9.42007 9.74907 9.75217 10.0812C10.0843 10.4133 10.2708 10.8637 10.2708 11.3333C10.2708 11.803 10.0843 12.2534 9.75217 12.5855C9.42007 12.9176 8.96965 13.1042 8.5 13.1042C8.03035 13.1042 7.57993 12.9176 7.24783 12.5855C6.91574 12.2534 6.72917 11.803 6.72917 11.3333C6.72917 10.8637 6.91574 10.4133 7.24783 10.0812C7.57993 9.74907 8.03035 9.5625 8.5 9.5625Z" stroke="var(--stroke-0, #212022)" stroke-opacity="0.8" stroke-width="1.1" stroke-linecap="square"/>
</g>
</svg>
