<svg preserveAspectRatio="none" width="100%" height="100%" overflow="visible" style="display: block;" viewBox="0 0 12.2754 12.2754" fill="none" xmlns="http://www.w3.org/2000/svg">
<g id="SVG">
<path id="Vector" d="M6.1377 6.64803C6.42018 6.64803 6.64917 6.41903 6.64917 6.13655C6.64917 5.85407 6.42018 5.62508 6.1377 5.62508C5.85522 5.62508 5.62622 5.85407 5.62622 6.13655C5.62622 6.41903 5.85522 6.64803 6.1377 6.64803Z" stroke="var(--stroke-0, #737B8C)" stroke-width="1.02295" stroke-linecap="round" stroke-linejoin="round"/>
<path id="Vector_2" d="M6.1377 3.06819C6.42018 3.06819 6.64917 2.8392 6.64917 2.55672C6.64917 2.27424 6.42018 2.04524 6.1377 2.04524C5.85522 2.04524 5.62622 2.27424 5.62622 2.55672C5.62622 2.8392 5.85522 3.06819 6.1377 3.06819Z" stroke="var(--stroke-0, #737B8C)" stroke-width="1.02295" stroke-linecap="round" stroke-linejoin="round"/>
<path id="Vector_3" d="M6.1377 10.2288C6.42018 10.2288 6.64917 9.99983 6.64917 9.71735C6.64917 9.43487 6.42018 9.20587 6.1377 9.20587C5.85522 9.20587 5.62622 9.43487 5.62622 9.71735C5.62622 9.99983 5.85522 10.2288 6.1377 10.2288Z" stroke="var(--stroke-0, #737B8C)" stroke-width="1.02295" stroke-linecap="round" stroke-linejoin="round"/>
</g>
</svg>
