<svg preserveAspectRatio="none" width="100%" height="100%" overflow="visible" style="display: block;" viewBox="0 0 12.5314 12.5314" fill="none" xmlns="http://www.w3.org/2000/svg">
<g id="Frame">
<path id="Vector" d="M11.3462 9.39828L7.16904 2.08831C7.07796 1.9276 6.94588 1.79392 6.78627 1.70092C6.62666 1.60791 6.44524 1.55891 6.26051 1.55891C6.07579 1.55891 5.89437 1.60791 5.73476 1.70092C5.57515 1.79392 5.44307 1.9276 5.35199 2.08831L1.17486 9.39828C1.0828 9.55772 1.03453 9.73867 1.03493 9.92278C1.03534 10.1069 1.08442 10.2876 1.17718 10.4467C1.26995 10.6057 1.40311 10.7374 1.56318 10.8283C1.72324 10.9193 1.90451 10.9664 2.08861 10.9647H10.4429C10.6261 10.9645 10.806 10.9161 10.9646 10.8244C11.1232 10.7327 11.2549 10.6008 11.3464 10.4421C11.438 10.2834 11.4861 10.1034 11.4861 9.92016C11.486 9.73694 11.4378 9.55696 11.3462 9.39828Z" stroke="var(--stroke-0, #D74242)" stroke-width="1.04428" stroke-linecap="round" stroke-linejoin="round"/>
<path id="Vector_2" d="M6.26573 4.69903V6.78759" stroke="var(--stroke-0, #D74242)" stroke-width="1.04428" stroke-linecap="round" stroke-linejoin="round"/>
<path id="Vector_3" d="M6.26573 8.87628H6.27129" stroke="var(--stroke-0, #D74242)" stroke-width="1.04428" stroke-linecap="round" stroke-linejoin="round"/>
</g>
</svg>
