<svg preserveAspectRatio="none" width="100%" height="100%" overflow="visible" style="display: block;" viewBox="0 0 16.1329 16.1329" fill="none" xmlns="http://www.w3.org/2000/svg">
<g id="SVG">
<path id="Vector" d="M10.0833 1.34436H4.0335C3.67694 1.34436 3.33498 1.486 3.08286 1.73813C2.83073 1.99025 2.68909 2.33221 2.68909 2.68877V13.444C2.68909 13.8006 2.83073 14.1426 3.08286 14.3947C3.33498 14.6468 3.67694 14.7884 4.0335 14.7884H12.1C12.4565 14.7884 12.7985 14.6468 13.0506 14.3947C13.3027 14.1426 13.4444 13.8006 13.4444 13.444V4.70538L10.0833 1.34436Z" stroke="var(--stroke-0, #8B8893)" stroke-width="1.20997" stroke-linecap="round" stroke-linejoin="round"/>
<path id="Vector_2" d="M9.41109 1.34436V4.03318C9.41109 4.38974 9.55273 4.73169 9.80486 4.98382C10.057 5.23594 10.3989 5.37759 10.7555 5.37759H13.4443" stroke="var(--stroke-0, #8B8893)" stroke-width="1.20997" stroke-linecap="round" stroke-linejoin="round"/>
<path id="Vector_3" d="M6.72215 6.04969H5.37774" stroke="var(--stroke-0, #8B8893)" stroke-width="1.20997" stroke-linecap="round" stroke-linejoin="round"/>
<path id="Vector_4" d="M10.7554 8.73853H5.37774" stroke="var(--stroke-0, #8B8893)" stroke-width="1.20997" stroke-linecap="round" stroke-linejoin="round"/>
<path id="Vector_5" d="M10.7554 11.4274H5.37774" stroke="var(--stroke-0, #8B8893)" stroke-width="1.20997" stroke-linecap="round" stroke-linejoin="round"/>
</g>
</svg>
