<svg preserveAspectRatio="none" width="100%" height="100%" overflow="visible" style="display: block;" viewBox="0 0 12.2754 12.2754" fill="none" xmlns="http://www.w3.org/2000/svg">
<g id="SVG">
<path id="Vector" d="M8.18362 10.7412V9.71826C8.18362 9.17566 7.96808 8.65527 7.58439 8.27159C7.20071 7.88791 6.68033 7.67236 6.13772 7.67236H3.06887C2.52626 7.67236 2.00588 7.88791 1.6222 8.27159C1.23852 8.65527 1.02297 9.17566 1.02297 9.71826V10.7412" stroke="var(--stroke-0, #6CB4E6)" stroke-width="1.02295" stroke-linecap="round" stroke-linejoin="round"/>
<path id="Vector_2" d="M4.60329 5.6271C5.73321 5.6271 6.64919 4.71112 6.64919 3.5812C6.64919 2.45128 5.73321 1.5353 4.60329 1.5353C3.47337 1.5353 2.55738 2.45128 2.55738 3.5812C2.55738 4.71112 3.47337 5.6271 4.60329 5.6271Z" stroke="var(--stroke-0, #6CB4E6)" stroke-width="1.02295" stroke-linecap="round" stroke-linejoin="round"/>
<path id="Vector_3" d="M9.71802 4.09253V7.16138" stroke="var(--stroke-0, #6CB4E6)" stroke-width="1.02295" stroke-linecap="round" stroke-linejoin="round"/>
<path id="Vector_4" d="M11.2524 5.62716H8.18357" stroke="var(--stroke-0, #6CB4E6)" stroke-width="1.02295" stroke-linecap="round" stroke-linejoin="round"/>
</g>
</svg>
