<svg preserveAspectRatio="none" width="100%" height="100%" overflow="visible" style="display: block;" viewBox="0 0 10.741 10.741" fill="none" xmlns="http://www.w3.org/2000/svg">
<g id="SVG">
<path id="Vector" d="M9.72507 8.05542L6.14474 1.78985C6.06667 1.6521 5.95346 1.53752 5.81666 1.4578C5.67985 1.37809 5.52435 1.33609 5.36602 1.33609C5.20768 1.33609 5.05218 1.37809 4.91538 1.4578C4.77857 1.53752 4.66536 1.6521 4.58729 1.78985L1.00697 8.05542C0.928057 8.19208 0.88668 8.34718 0.88703 8.50498C0.887379 8.66279 0.929443 8.8177 1.00896 8.95401C1.08847 9.09032 1.20261 9.20318 1.3398 9.28116C1.47699 9.35914 1.63236 9.39946 1.79016 9.39804H8.95082C9.10786 9.39788 9.2621 9.35641 9.39804 9.27778C9.53398 9.19916 9.64684 9.08615 9.72529 8.95011C9.80375 8.81406 9.84502 8.65978 9.84498 8.50273C9.84494 8.34569 9.80359 8.19142 9.72507 8.05542Z" stroke="var(--stroke-0, #D1475E)" stroke-width="0.895082" stroke-linecap="round" stroke-linejoin="round"/>
<path id="Vector_2" d="M5.37049 4.02771V5.81787" stroke="var(--stroke-0, #D1475E)" stroke-width="0.895082" stroke-linecap="round" stroke-linejoin="round"/>
<path id="Vector_3" d="M5.37049 7.60802H5.37519" stroke="var(--stroke-0, #D1475E)" stroke-width="0.895082" stroke-linecap="round" stroke-linejoin="round"/>
</g>
</svg>
