<svg preserveAspectRatio="none" width="100%" height="100%" overflow="visible" style="display: block;" viewBox="0 0 13.3096 13.9816" fill="none" xmlns="http://www.w3.org/2000/svg">
<path id="Vector" d="M8.67119 13.3766V7.99901C8.67119 7.82073 8.60037 7.64975 8.47431 7.52369C8.34825 7.39763 8.17727 7.3268 7.99899 7.3268H5.31017C5.13189 7.3268 4.96091 7.39763 4.83485 7.52369C4.70879 7.64975 4.63797 7.82073 4.63797 7.99901V13.3766M0.604984 5.98227C0.604937 5.7867 0.647557 5.59348 0.729871 5.41608C0.812185 5.23868 0.932212 5.08138 1.08158 4.95514L5.78701 0.922587C6.02966 0.717503 6.33711 0.604984 6.65482 0.604984C6.97254 0.604984 7.27998 0.717503 7.52264 0.922587L12.2281 4.95514C12.3774 5.08138 12.4975 5.23868 12.5798 5.41608C12.6621 5.59348 12.7047 5.7867 12.7047 5.98227V12.0321C12.7047 12.3887 12.563 12.7306 12.3109 12.9828C12.0588 13.2349 11.7168 13.3765 11.3603 13.3765H1.94939C1.59283 13.3765 1.25088 13.2349 0.998752 12.9828C0.746627 12.7306 0.604984 12.3887 0.604984 12.0321V5.98227Z" stroke="var(--stroke-0, #8B8893)" stroke-width="1.20997" stroke-linecap="round" stroke-linejoin="round"/>
</svg>
