<svg preserveAspectRatio="none" width="100%" height="100%" overflow="visible" style="display: block;" viewBox="0 0 16.1329 16.1329" fill="none" xmlns="http://www.w3.org/2000/svg">
<g id="SVG">
<path id="Vector" d="M12.7718 4.70534V2.68873C12.7718 2.51045 12.7009 2.33947 12.5749 2.21341C12.4488 2.08734 12.2778 2.01652 12.0996 2.01652H3.3609C3.00434 2.01652 2.66238 2.15816 2.41026 2.41029C2.15813 2.66242 2.01649 3.00437 2.01649 3.36093C2.01649 3.71749 2.15813 4.05945 2.41026 4.31157C2.66238 4.5637 3.00434 4.70534 3.3609 4.70534H13.444C13.6222 4.70534 13.7932 4.77616 13.9193 4.90222C14.0453 5.02829 14.1162 5.19926 14.1162 5.37754V8.06636M14.1162 8.06636H12.0996C11.743 8.06636 11.401 8.20801 11.1489 8.46013C10.8968 8.71226 10.7551 9.05421 10.7551 9.41077C10.7551 9.76733 10.8968 10.1093 11.1489 10.3614C11.401 10.6135 11.743 10.7552 12.0996 10.7552H14.1162C14.2944 10.7552 14.4654 10.6844 14.5915 10.5583C14.7176 10.4322 14.7884 10.2613 14.7884 10.083V8.73857C14.7884 8.56029 14.7176 8.38931 14.5915 8.26325C14.4654 8.13718 14.2944 8.06636 14.1162 8.06636Z" stroke="var(--stroke-0, #8B8893)" stroke-width="1.20997" stroke-linecap="round" stroke-linejoin="round"/>
<path id="Vector_2" d="M2.01649 3.36103V12.7719C2.01649 13.1285 2.15813 13.4704 2.41026 13.7225C2.66238 13.9747 3.00434 14.1163 3.3609 14.1163H13.444C13.6222 14.1163 13.7932 14.0455 13.9193 13.9194C14.0453 13.7934 14.1162 13.6224 14.1162 13.4441V10.7553" stroke="var(--stroke-0, #8B8893)" stroke-width="1.20997" stroke-linecap="round" stroke-linejoin="round"/>
</g>
</svg>
