<svg preserveAspectRatio="none" width="100%" height="100%" overflow="visible" style="display: block;" viewBox="0 0 15.3516 15.3516" fill="none" xmlns="http://www.w3.org/2000/svg">
<g id="SVG">
<path id="Vector" d="M12.7929 6.39648C12.7929 9.59025 9.24989 12.9164 8.06015 13.9437C7.94931 14.027 7.81439 14.0721 7.67572 14.0721C7.53704 14.0721 7.40213 14.027 7.29129 13.9437C6.10154 12.9164 2.55853 9.59025 2.55853 6.39648C2.55853 5.03932 3.09766 3.73775 4.05732 2.77809C5.01698 1.81843 6.31856 1.2793 7.67572 1.2793C9.03288 1.2793 10.3345 1.81843 11.2941 2.77809C12.2538 3.73775 12.7929 5.03932 12.7929 6.39648Z" stroke="var(--stroke-0, #212022)" stroke-opacity="0.8" stroke-width="1.2793" stroke-linecap="round" stroke-linejoin="round"/>
<path id="Vector_2" d="M7.67578 8.31543C8.73559 8.31543 9.59473 7.45629 9.59473 6.39648C9.59473 5.33668 8.73559 4.47754 7.67578 4.47754C6.61598 4.47754 5.75684 5.33668 5.75684 6.39648C5.75684 7.45629 6.61598 8.31543 7.67578 8.31543Z" stroke="var(--stroke-0, #212022)" stroke-opacity="0.8" stroke-width="1.2793" stroke-linecap="round" stroke-linejoin="round"/>
</g>
</svg>
