<svg preserveAspectRatio="none" width="100%" height="100%" overflow="visible" style="display: block;" viewBox="0 0 51.6253 51.6253" fill="none" xmlns="http://www.w3.org/2000/svg">
<g id="Background">
<rect width="51.6253" height="51.6253" rx="12.9063" fill="var(--fill-0, #F8DA78)"/>
<path id="Vector" d="M27.9636 15.0575V19.3597C27.9636 19.9302 28.1903 20.4773 28.5937 20.8807C28.9971 21.2841 29.5442 21.5107 30.1147 21.5107H34.4168M23.6616 22.5863H21.5105M30.1148 26.8883H21.5105M30.1148 31.1904H21.5105M29.0393 15.0575H19.3595C18.789 15.0575 18.2419 15.2842 17.8385 15.6876C17.4351 16.091 17.2085 16.6381 17.2085 17.2086V34.417C17.2085 34.9875 17.4351 35.5347 17.8385 35.9381C18.2419 36.3415 18.789 36.5681 19.3595 36.5681H32.2659C32.8363 36.5681 33.3835 36.3415 33.7869 35.9381C34.1903 35.5347 34.4169 34.9875 34.4169 34.417V20.4352L29.0393 15.0575Z" stroke="var(--stroke-0, #8D6B00)" stroke-width="2.15105" stroke-linecap="round" stroke-linejoin="round"/>
</g>
</svg>
