<svg preserveAspectRatio="none" width="100%" height="100%" overflow="visible" style="display: block;" viewBox="0 0 16.1329 16.1329" fill="none" xmlns="http://www.w3.org/2000/svg">
<g id="SVG">
<path id="Vector" d="M12.7718 2.01652H3.36092C2.61842 2.01652 2.01651 2.61843 2.01651 3.36093V12.7718C2.01651 13.5143 2.61842 14.1162 3.36092 14.1162H12.7718C13.5143 14.1162 14.1162 13.5143 14.1162 12.7718V3.36093C14.1162 2.61843 13.5143 2.01652 12.7718 2.01652Z" stroke="var(--stroke-0, #8B8893)" stroke-width="1.20997" stroke-linecap="round" stroke-linejoin="round"/>
<path id="Vector_2" d="M6.04957 7.39399C6.79207 7.39399 7.39398 6.79208 7.39398 6.04959C7.39398 5.30709 6.79207 4.70518 6.04957 4.70518C5.30708 4.70518 4.70517 5.30709 4.70517 6.04959C4.70517 6.79208 5.30708 7.39399 6.04957 7.39399Z" stroke="var(--stroke-0, #8B8893)" stroke-width="1.20997" stroke-linecap="round" stroke-linejoin="round"/>
<path id="Vector_3" d="M14.1161 10.0831L12.0416 8.00864C11.7895 7.7566 11.4476 7.61501 11.0911 7.61501C10.7347 7.61501 10.3928 7.7566 10.1407 8.00864L4.033 14.1163" stroke="var(--stroke-0, #8B8893)" stroke-width="1.20997" stroke-linecap="round" stroke-linejoin="round"/>
</g>
</svg>
