<svg preserveAspectRatio="none" width="100%" height="100%" overflow="visible" style="display: block;" viewBox="0 0 12.2754 12.2754" fill="none" xmlns="http://www.w3.org/2000/svg">
<g id="SVG">
<path id="Vector" d="M6.1377 6.6494C6.42018 6.6494 6.64917 6.4204 6.64917 6.13792C6.64917 5.85544 6.42018 5.62644 6.1377 5.62644C5.85522 5.62644 5.62622 5.85544 5.62622 6.13792C5.62622 6.4204 5.85522 6.6494 6.1377 6.6494Z" stroke="var(--stroke-0, #737B8C)" stroke-width="1.02295" stroke-linecap="round" stroke-linejoin="round"/>
<path id="Vector_2" d="M6.1377 3.06812C6.42018 3.06812 6.64917 2.83912 6.64917 2.55664C6.64917 2.27416 6.42018 2.04516 6.1377 2.04516C5.85522 2.04516 5.62622 2.27416 5.62622 2.55664C5.62622 2.83912 5.85522 3.06812 6.1377 3.06812Z" stroke="var(--stroke-0, #737B8C)" stroke-width="1.02295" stroke-linecap="round" stroke-linejoin="round"/>
<path id="Vector_3" d="M6.1377 10.2287C6.42018 10.2287 6.64917 9.99975 6.64917 9.71727C6.64917 9.43479 6.42018 9.2058 6.1377 9.2058C5.85522 9.2058 5.62622 9.43479 5.62622 9.71727C5.62622 9.99975 5.85522 10.2287 6.1377 10.2287Z" stroke="var(--stroke-0, #737B8C)" stroke-width="1.02295" stroke-linecap="round" stroke-linejoin="round"/>
</g>
</svg>
