<svg preserveAspectRatio="none" width="100%" height="100%" overflow="visible" style="display: block;" viewBox="0 0 12.2754 12.2754" fill="none" xmlns="http://www.w3.org/2000/svg">
<g id="SVG">
<path id="Vector" d="M6.1377 6.6501C6.42018 6.6501 6.64917 6.4211 6.64917 6.13862C6.64917 5.85614 6.42018 5.62715 6.1377 5.62715C5.85522 5.62715 5.62622 5.85614 5.62622 6.13862C5.62622 6.4211 5.85522 6.6501 6.1377 6.6501Z" stroke="var(--stroke-0, #737B8C)" stroke-width="1.02295" stroke-linecap="round" stroke-linejoin="round"/>
<path id="Vector_2" d="M6.1377 3.0693C6.42018 3.0693 6.64917 2.8403 6.64917 2.55782C6.64917 2.27534 6.42018 2.04635 6.1377 2.04635C5.85522 2.04635 5.62622 2.27534 5.62622 2.55782C5.62622 2.8403 5.85522 3.0693 6.1377 3.0693Z" stroke="var(--stroke-0, #737B8C)" stroke-width="1.02295" stroke-linecap="round" stroke-linejoin="round"/>
<path id="Vector_3" d="M6.1377 10.2304C6.42018 10.2304 6.64917 10.0014 6.64917 9.71894C6.64917 9.43646 6.42018 9.20746 6.1377 9.20746C5.85522 9.20746 5.62622 9.43646 5.62622 9.71894C5.62622 10.0014 5.85522 10.2304 6.1377 10.2304Z" stroke="var(--stroke-0, #737B8C)" stroke-width="1.02295" stroke-linecap="round" stroke-linejoin="round"/>
</g>
</svg>
