<svg preserveAspectRatio="none" width="100%" height="100%" overflow="visible" style="display: block;" viewBox="0 0 66.6612 11.3361" fill="none" xmlns="http://www.w3.org/2000/svg">
<g id="Right Side">
<g id="Battery">
<path id="Rectangle" opacity="0.35" d="M45.0002 0.502788H61.6662C62.8628 0.502788 63.8332 1.47316 63.8332 2.66978V8.66978C63.833 9.86625 62.8627 10.8358 61.6662 10.8358H45.0002C43.8037 10.8358 42.8334 9.86625 42.8332 8.66978V2.66978C42.8332 1.47316 43.8036 0.502788 45.0002 0.502788Z" stroke="var(--stroke-0, black)"/>
<path id="Combined Shape" opacity="0.4" d="M65.3332 3.66978V7.66978C66.1379 7.331 66.6612 6.54291 66.6612 5.66978C66.6612 4.79665 66.1379 4.00856 65.3332 3.66978" fill="var(--fill-0, black)"/>
<path id="Rectangle_2" d="M44.3332 3.33612C44.3332 2.59974 44.9302 2.00279 45.6665 2.00279H60.9999C61.7363 2.00279 62.3332 2.59974 62.3332 3.33612V8.00279C62.3332 8.73917 61.7363 9.33612 60.9999 9.33612H45.6665C44.9302 9.33612 44.3332 8.73917 44.3332 8.00279V3.33612Z" fill="var(--fill-0, black)"/>
</g>
<path id="Wifi" d="M27.4535 8.39964C28.7291 7.32088 30.5979 7.32079 31.8734 8.39964C31.9375 8.45759 31.9741 8.53985 31.976 8.6262C31.9777 8.71263 31.9438 8.79607 31.8822 8.85667L29.8851 10.8723C29.8266 10.9315 29.7467 10.965 29.6635 10.9651C29.5802 10.9651 29.5003 10.9315 29.4418 10.8723L27.4437 8.85667C27.3822 8.79604 27.3481 8.71256 27.35 8.6262C27.3519 8.53979 27.3893 8.45756 27.4535 8.39964ZM24.7885 5.71116C27.5366 3.15501 31.7923 3.1551 34.5404 5.71116C34.6024 5.77105 34.6381 5.8535 34.639 5.93967C34.6399 6.0259 34.606 6.10896 34.5453 6.17014L33.391 7.33714C33.272 7.45623 33.0795 7.45885 32.9574 7.34299C32.0549 6.5258 30.8809 6.0734 29.6635 6.07346C28.4468 6.07397 27.2733 6.52633 26.3715 7.34299C26.2495 7.45864 26.0578 7.45593 25.9388 7.33714L24.7836 6.17014C24.7229 6.10907 24.689 6.02579 24.6898 5.93967C24.6907 5.8535 24.7265 5.77103 24.7885 5.71116ZM22.1234 3.02952C26.3385 -1.00974 32.9885 -1.00993 37.2035 3.02952C37.2644 3.08949 37.2987 3.17158 37.2992 3.25706C37.2997 3.34264 37.2658 3.42485 37.2054 3.48557L36.0502 4.65256C35.9311 4.77229 35.7375 4.77337 35.6166 4.65549C34.0106 3.12872 31.8793 2.27768 29.6635 2.27756C27.4473 2.27756 25.3155 3.1286 23.7094 4.65549C23.5886 4.7734 23.3958 4.77219 23.2767 4.65256L22.1205 3.48557C22.0602 3.42481 22.0262 3.34264 22.0267 3.25706C22.0273 3.1715 22.0624 3.08947 22.1234 3.02952Z" fill="var(--fill-0, black)"/>
<path id="Mobile Signal" d="M2 7.00279C2.55215 7.00294 3 7.4506 3 8.00279V10.0028C3 10.555 2.55215 11.0026 2 11.0028H1C0.447715 11.0028 0 10.5551 0 10.0028V8.00279C0 7.4505 0.447715 7.00279 1 7.00279H2ZM6.66602 5.00279C7.2183 5.00279 7.66602 5.4505 7.66602 6.00279V10.0028C7.66602 10.5551 7.2183 11.0028 6.66602 11.0028H5.66602C5.11382 11.0027 4.66602 10.555 4.66602 10.0028V6.00279C4.66602 5.45057 5.11382 5.0029 5.66602 5.00279H6.66602ZM16 0.335796C16.5522 0.335953 17 0.783608 17 1.3358V10.0028C16.9998 10.5548 16.552 11.0026 16 11.0028H15C14.4478 11.0028 14.0002 10.5549 14 10.0028V1.3358C14 0.783511 14.4477 0.335796 15 0.335796H16ZM11.333 2.6688C11.8853 2.6688 12.333 3.11652 12.333 3.6688V10.0018C12.333 10.5541 11.8853 11.0018 11.333 11.0018H10.333C9.78081 11.0017 9.33301 10.554 9.33301 10.0018V3.6688C9.33301 3.11659 9.78081 2.66891 10.333 2.6688H11.333Z" fill="var(--fill-0, black)"/>
</g>
</svg>
