<svg preserveAspectRatio="none" width="100%" height="100%" overflow="visible" style="display: block;" viewBox="0 0 15.1135 14.5607" fill="none" xmlns="http://www.w3.org/2000/svg">
<g id="Group">
<path id="Vector" d="M0.255807 5.71435C-0.273001 6.63013 0.0450513 7.8173 0.960986 8.34595C1.47751 8.64436 2.08015 8.67291 2.60252 8.47674L4.60722 11.4292C4.54394 11.5058 4.48696 11.5874 4.43684 11.6732C3.90819 12.5892 4.22624 13.7762 5.14217 14.305C6.05811 14.8338 7.24482 14.5156 7.77362 13.5996C8.28401 12.7155 7.99973 11.5846 7.15579 11.0313C7.1289 11.0074 7.09969 10.9864 7.0686 10.9683C7.03741 10.9504 7.0045 10.9355 6.97036 10.9241C6.49804 10.6862 5.9657 10.6624 5.49185 10.8193L3.4638 7.83296C3.50985 7.77186 3.55329 7.70862 3.59244 7.64093C3.94641 7.02754 3.9177 6.29596 3.58538 5.72034L5.57781 3.71455C6.42666 4.0389 7.41489 3.72054 7.90394 2.93017L11.2805 3.6378C11.3451 4.22924 11.6774 4.78475 12.2277 5.1025C13.1437 5.63131 14.3304 5.3131 14.8592 4.39717C15.3697 3.51301 15.0853 2.38217 14.2415 1.8288C14.2145 1.80495 14.1852 1.78386 14.154 1.76587C14.1229 1.7479 14.0901 1.73309 14.0561 1.72166C13.1549 1.26761 12.0329 1.58658 11.5226 2.47074C11.5021 2.50635 11.4849 2.54273 11.467 2.57896L8.18761 1.89143C8.17456 1.27221 7.86465 0.671107 7.31788 0.312684C7.291 0.288843 7.26179 0.267759 7.23069 0.249749C7.1995 0.231812 7.16659 0.217053 7.13245 0.205695C6.23141 -0.248512 5.10963 0.0706147 4.59909 0.954775C4.20766 1.63263 4.28134 2.45846 4.71698 3.05665L2.8125 4.97387L2.78948 4.96527C1.88813 4.51106 0.766194 4.83019 0.255807 5.71435ZM1.18648 6.2516C1.42486 5.83868 1.93725 5.70146 2.35016 5.93999C2.76308 6.17838 2.90046 6.69061 2.66192 7.10352C2.42338 7.51644 1.9113 7.65398 1.49839 7.41544C1.08547 7.1769 0.948092 6.66451 1.18648 6.2516ZM5.52945 1.49187C5.76784 1.07896 6.28022 0.941727 6.69329 1.18027C7.1062 1.41865 7.24343 1.93088 7.00489 2.3438C6.76651 2.75671 6.25428 2.89425 5.84136 2.65571C5.42845 2.41717 5.29107 1.90479 5.52945 1.49187ZM5.36751 12.2103C5.6059 11.7974 6.11828 11.6603 6.53135 11.8987C6.94442 12.1371 7.08149 12.6493 6.84295 13.0622C6.60457 13.4752 6.09234 13.6127 5.67942 13.3743C5.26651 13.1359 5.12912 12.6234 5.36751 12.2103ZM12.4531 3.00768C12.6916 2.59477 13.2038 2.45769 13.6169 2.69608C14.03 2.93446 14.1671 3.44669 13.9285 3.85961C13.6903 4.27252 13.1779 4.41006 12.765 4.17167C12.3521 3.93329 12.2147 3.42075 12.4531 3.00768Z" fill="var(--fill-0, #212022)" fill-opacity="0.8"/>
<path id="Vector_2" d="M2.91658 2.78987C2.76354 2.83285 2.75018 2.87982 2.7029 3.02073L2.44318 3.7933L3.17077 4.03767L3.37569 3.42873L3.87964 3.21445L3.57924 2.50804L2.91658 2.78987ZM7.58313 4.06515L8.64688 5.17173L9.19995 4.63985L8.13619 3.53327L7.58313 4.06515ZM9.55883 4.81991L9.90896 5.50298L11.275 4.80287L10.9248 4.11979L9.55883 4.81991ZM1.1062 10.7016L1.87001 10.7752L2.01783 9.24731L1.25371 9.17363L1.1062 10.7016ZM2.22936 11.6072L3.62912 12.2367L3.94426 11.5371L2.54434 10.9071L2.22936 11.6072Z" fill="var(--fill-0, #212022)" fill-opacity="0.8"/>
</g>
</svg>
