<svg preserveAspectRatio="none" width="100%" height="100%" overflow="visible" style="display: block;" viewBox="0 0 9.20656 9.20656" fill="none" xmlns="http://www.w3.org/2000/svg">
<g id="SVG">
<path id="Vector" d="M4.43527 1.253C4.45182 1.22293 4.47615 1.19785 4.5057 1.18038C4.53526 1.16292 4.56896 1.1537 4.60329 1.1537C4.63762 1.1537 4.67132 1.16292 4.70087 1.18038C4.73042 1.19785 4.75475 1.22293 4.77131 1.253L5.90371 3.40273C5.93072 3.45251 5.96841 3.49569 6.01408 3.52917C6.05975 3.56266 6.11227 3.58562 6.16786 3.5964C6.22346 3.60718 6.28075 3.60552 6.33563 3.59153C6.39051 3.57755 6.44161 3.55158 6.48526 3.51551L8.12595 2.10998C8.15744 2.08436 8.19625 2.0694 8.23679 2.06724C8.27733 2.06509 8.31751 2.07585 8.35154 2.09799C8.38558 2.12012 8.41171 2.15248 8.42618 2.19041C8.44065 2.22835 8.44271 2.26989 8.43206 2.30907L7.34492 6.2395C7.32273 6.31993 7.27492 6.39093 7.20875 6.44174C7.14257 6.49255 7.06163 6.5204 6.9782 6.52107H2.22876C2.14526 6.52049 2.06424 6.49267 1.99798 6.44186C1.93173 6.39104 1.88386 6.31999 1.86165 6.2395L0.774893 2.30945C0.764248 2.27027 0.766309 2.22873 0.780778 2.1908C0.795248 2.15287 0.82138 2.1205 0.855413 2.09837C0.889446 2.07624 0.929624 2.06547 0.970164 2.06763C1.0107 2.06978 1.04952 2.08474 1.08101 2.11036L2.72131 3.51589C2.76497 3.55197 2.81607 3.57793 2.87094 3.59192C2.92582 3.6059 2.98311 3.60756 3.03871 3.59678C3.0943 3.586 3.14682 3.56304 3.19249 3.52956C3.23817 3.49607 3.27586 3.45289 3.30286 3.40311L4.43527 1.253Z" stroke="var(--stroke-0, #6CB4E6)" stroke-width="0.767213" stroke-linecap="round" stroke-linejoin="round"/>
<path id="Vector_2" d="M1.91804 8.05568H7.28853" stroke="var(--stroke-0, #6CB4E6)" stroke-width="0.767213" stroke-linecap="round" stroke-linejoin="round"/>
</g>
</svg>
