<svg preserveAspectRatio="none" width="100%" height="100%" overflow="visible" style="display: block;" viewBox="0 0 10.741 10.741" fill="none" xmlns="http://www.w3.org/2000/svg">
<g id="SVG">
<path id="Vector" d="M9.72507 8.05535L6.14474 1.78977C6.06667 1.65202 5.95346 1.53744 5.81666 1.45773C5.67985 1.37801 5.52435 1.33601 5.36602 1.33601C5.20768 1.33601 5.05218 1.37801 4.91538 1.45773C4.77857 1.53744 4.66536 1.65202 4.58729 1.78977L1.00697 8.05535C0.928057 8.19201 0.88668 8.3471 0.88703 8.50491C0.887379 8.66271 0.929443 8.81762 1.00896 8.95393C1.08847 9.09024 1.20261 9.2031 1.3398 9.28108C1.47699 9.35907 1.63236 9.39939 1.79016 9.39797H8.95082C9.10786 9.39781 9.2621 9.35633 9.39804 9.27771C9.53398 9.19908 9.64684 9.08607 9.72529 8.95003C9.80375 8.81399 9.84502 8.6597 9.84498 8.50266C9.84494 8.34562 9.80359 8.19135 9.72507 8.05535Z" stroke="var(--stroke-0, #D1475E)" stroke-width="0.895082" stroke-linecap="round" stroke-linejoin="round"/>
<path id="Vector_2" d="M5.37049 4.02811V5.81828" stroke="var(--stroke-0, #D1475E)" stroke-width="0.895082" stroke-linecap="round" stroke-linejoin="round"/>
<path id="Vector_3" d="M5.37049 7.60795H5.37519" stroke="var(--stroke-0, #D1475E)" stroke-width="0.895082" stroke-linecap="round" stroke-linejoin="round"/>
</g>
</svg>
