<svg preserveAspectRatio="none" width="100%" height="100%" overflow="visible" style="display: block;" viewBox="0 0 13.75 9.375" fill="none" xmlns="http://www.w3.org/2000/svg">
<path id="Vector" d="M6.875 2.8125C7.37228 2.8125 7.84919 3.01004 8.20083 3.36167C8.55246 3.71331 8.75 4.19022 8.75 4.6875C8.75 5.18478 8.55246 5.66169 8.20083 6.01333C7.84919 6.36496 7.37228 6.5625 6.875 6.5625C6.37772 6.5625 5.90081 6.36496 5.54917 6.01333C5.19754 5.66169 5 5.18478 5 4.6875C5 4.19022 5.19754 3.71331 5.54917 3.36167C5.90081 3.01004 6.37772 2.8125 6.875 2.8125ZM6.875 0C10 0 12.6687 1.94375 13.75 4.6875C12.6687 7.43125 10 9.375 6.875 9.375C3.75 9.375 1.08125 7.43125 0 4.6875C1.08125 1.94375 3.75 0 6.875 0ZM1.3625 4.6875C1.86766 5.71894 2.65207 6.58797 3.62655 7.19578C4.60103 7.8036 5.7265 8.12582 6.875 8.12582C8.0235 8.12582 9.14897 7.8036 10.1235 7.19578C11.0979 6.58797 11.8823 5.71894 12.3875 4.6875C11.8823 3.65606 11.0979 2.78703 10.1235 2.17922C9.14897 1.5714 8.0235 1.24918 6.875 1.24918C5.7265 1.24918 4.60103 1.5714 3.62655 2.17922C2.65207 2.78703 1.86766 3.65606 1.3625 4.6875Z" fill="var(--fill-0, #B1B1B1)"/>
</svg>
