<svg preserveAspectRatio="none" width="100%" height="100%" overflow="visible" style="display: block;" viewBox="0 0 15.3516 15.3516" fill="none" xmlns="http://www.w3.org/2000/svg">
<g id="SVG">
<path id="Vector" d="M3.83789 5.11718C3.83789 4.09931 4.24224 3.12313 4.96198 2.40338C5.68173 1.68364 6.65791 1.27929 7.67578 1.27929C8.69365 1.27929 9.66984 1.68364 10.3896 2.40338C11.1093 3.12313 11.5137 4.09931 11.5137 5.11718C11.5137 9.59472 13.4326 10.874 13.4326 10.874H1.91895C1.91895 10.874 3.83789 9.59472 3.83789 5.11718Z" stroke="var(--stroke-0, #212022)" stroke-opacity="0.8" stroke-width="1.2793" stroke-linecap="round" stroke-linejoin="round"/>
<path id="Vector_2" d="M6.58832 13.4326C6.69538 13.6274 6.85278 13.7898 7.04406 13.9029C7.23534 14.016 7.45349 14.0757 7.67572 14.0757C7.89795 14.0757 8.11609 14.016 8.30738 13.9029C8.49866 13.7898 8.65605 13.6274 8.76312 13.4326" stroke="var(--stroke-0, #212022)" stroke-opacity="0.8" stroke-width="1.2793" stroke-linecap="round" stroke-linejoin="round"/>
</g>
</svg>
