<svg preserveAspectRatio="none" width="100%" height="100%" overflow="visible" style="display: block;" viewBox="0 0 12.2754 12.2754" fill="none" xmlns="http://www.w3.org/2000/svg">
<g id="SVG">
<path id="Vector" d="M6.1377 6.64872C6.42018 6.64872 6.64917 6.41972 6.64917 6.13724C6.64917 5.85476 6.42018 5.62577 6.1377 5.62577C5.85522 5.62577 5.62622 5.85476 5.62622 6.13724C5.62622 6.41972 5.85522 6.64872 6.1377 6.64872Z" stroke="var(--stroke-0, #737B8C)" stroke-width="1.02295" stroke-linecap="round" stroke-linejoin="round"/>
<path id="Vector_2" d="M6.1377 3.0684C6.42018 3.0684 6.64917 2.83941 6.64917 2.55693C6.64917 2.27445 6.42018 2.04545 6.1377 2.04545C5.85522 2.04545 5.62622 2.27445 5.62622 2.55693C5.62622 2.83941 5.85522 3.0684 6.1377 3.0684Z" stroke="var(--stroke-0, #737B8C)" stroke-width="1.02295" stroke-linecap="round" stroke-linejoin="round"/>
<path id="Vector_3" d="M6.1377 10.2295C6.42018 10.2295 6.64917 10.0005 6.64917 9.71804C6.64917 9.43556 6.42018 9.20657 6.1377 9.20657C5.85522 9.20657 5.62622 9.43556 5.62622 9.71804C5.62622 10.0005 5.85522 10.2295 6.1377 10.2295Z" stroke="var(--stroke-0, #737B8C)" stroke-width="1.02295" stroke-linecap="round" stroke-linejoin="round"/>
</g>
</svg>
