<svg preserveAspectRatio="none" width="100%" height="100%" overflow="visible" style="display: block;" viewBox="0 0 12.2754 12.2754" fill="none" xmlns="http://www.w3.org/2000/svg">
<g id="SVG">
<path id="Vector" d="M8.18361 10.7404V9.71741C8.18361 9.1748 7.96806 8.65442 7.58438 8.27074C7.2007 7.88706 6.68031 7.67151 6.1377 7.67151H3.06885C2.52624 7.67151 2.00586 7.88706 1.62218 8.27074C1.2385 8.65442 1.02295 9.1748 1.02295 9.71741V10.7404" stroke="var(--stroke-0, #6CB4E6)" stroke-width="1.02295" stroke-linecap="round" stroke-linejoin="round"/>
<path id="Vector_2" d="M4.60328 5.62528C5.7332 5.62528 6.64919 4.7093 6.64919 3.57938C6.64919 2.44946 5.7332 1.53348 4.60328 1.53348C3.47336 1.53348 2.55738 2.44946 2.55738 3.57938C2.55738 4.7093 3.47336 5.62528 4.60328 5.62528Z" stroke="var(--stroke-0, #6CB4E6)" stroke-width="1.02295" stroke-linecap="round" stroke-linejoin="round"/>
<path id="Vector_3" d="M11.2525 10.7399V9.71691C11.2521 9.2636 11.1012 8.82324 10.8235 8.46498C10.5458 8.10671 10.1569 7.85082 9.71803 7.7375" stroke="var(--stroke-0, #6CB4E6)" stroke-width="1.02295" stroke-linecap="round" stroke-linejoin="round"/>
<path id="Vector_4" d="M8.18361 1.59995C8.62369 1.71263 9.01375 1.96857 9.2923 2.32743C9.57085 2.68628 9.72204 3.12764 9.72204 3.58192C9.72204 4.03619 9.57085 4.47755 9.2923 4.83641C9.01375 5.19526 8.62369 5.45121 8.18361 5.56388" stroke="var(--stroke-0, #6CB4E6)" stroke-width="1.02295" stroke-linecap="round" stroke-linejoin="round"/>
</g>
</svg>
