<svg preserveAspectRatio="none" width="100%" height="100%" overflow="visible" style="display: block;" viewBox="0 0 12.2754 12.2754" fill="none" xmlns="http://www.w3.org/2000/svg">
<g id="SVG">
<path id="Vector" d="M6.1377 6.65016C6.42018 6.65016 6.64917 6.42116 6.64917 6.13868C6.64917 5.8562 6.42018 5.62721 6.1377 5.62721C5.85522 5.62721 5.62622 5.8562 5.62622 6.13868C5.62622 6.42116 5.85522 6.65016 6.1377 6.65016Z" stroke="var(--stroke-0, #737B8C)" stroke-width="1.02295" stroke-linecap="round" stroke-linejoin="round"/>
<path id="Vector_2" d="M6.1377 3.06984C6.42018 3.06984 6.64917 2.84085 6.64917 2.55837C6.64917 2.27589 6.42018 2.04689 6.1377 2.04689C5.85522 2.04689 5.62622 2.27589 5.62622 2.55837C5.62622 2.84085 5.85522 3.06984 6.1377 3.06984Z" stroke="var(--stroke-0, #737B8C)" stroke-width="1.02295" stroke-linecap="round" stroke-linejoin="round"/>
<path id="Vector_3" d="M6.1377 10.231C6.42018 10.231 6.64917 10.002 6.64917 9.71948C6.64917 9.437 6.42018 9.20801 6.1377 9.20801C5.85522 9.20801 5.62622 9.437 5.62622 9.71948C5.62622 10.002 5.85522 10.231 6.1377 10.231Z" stroke="var(--stroke-0, #737B8C)" stroke-width="1.02295" stroke-linecap="round" stroke-linejoin="round"/>
</g>
</svg>
