<svg preserveAspectRatio="none" width="100%" height="100%" overflow="visible" style="display: block;" viewBox="0 0 17 15" fill="none" xmlns="http://www.w3.org/2000/svg">
<path id="Vector" d="M17 2.88462C17 2.65385 16.8867 2.48077 16.7167 2.36538L12.75 0.0576923C12.6367 -5.58794e-08 12.58 0 12.4667 0C12.3533 0 12.2967 -5.58794e-08 12.1833 0.0576923L8.5 2.19231L4.81667 0.0576923C4.70333 -5.58794e-08 4.64667 0 4.53333 0C4.42 0 4.36333 -5.58794e-08 4.25 0.0576923L0.283333 2.36538C0.113333 2.48077 0 2.65385 0 2.88462V14.4231C0 14.7692 0.226667 15 0.566667 15C0.68 15 0.736667 14.9423 0.85 14.9423L4.53333 12.8077L8.21667 14.9423C8.33 15 8.38667 15 8.5 15C8.61333 15 8.67 15 8.78333 14.9423L12.4667 12.8077L16.15 14.9423C16.2067 15 16.32 15 16.4333 15C16.7733 15 17 14.7692 17 14.4231V2.88462ZM1.13333 3.23077L3.96667 1.55769V11.7692L1.13333 13.4423V3.23077ZM7.93333 13.4423L5.1 11.7692V1.55769L7.93333 3.23077V13.4423ZM11.9 11.7692L9.06667 13.4423V3.23077L11.9 1.55769V11.7692ZM13.0333 11.7692V1.55769L15.8667 3.23077V13.4423L13.0333 11.7692Z" fill="var(--fill-0, #8B8893)"/>
</svg>
